<svg width="179" height="39" viewBox="0 0 179 39" fill="none" xmlns="http://www.w3.org/2000/svg">
<path d="M16.4986 23.8343L1.40152 0.00298552H8.2046L16.4975 13.046L24.7926 0.0018093H32.9V33.3958H26.8424V7.45667L16.4997 23.8355L16.4986 23.8343ZM6.05761 33.4452H0V25.9915L6.05761 16.4112V33.4452ZM41.0979 33.4452V0.00298552H47.1555V24.8153L62.8102 0.00298552H69.8927V33.4452H64.0218V9.0328L48.4597 33.4452H41.0979ZM115.543 33.4452V0.00298552H121.6V24.8153L137.256 0.00298552H144.338V33.4452H138.467V9.23158L123.094 33.4452H115.543ZM164.475 0.00298552C173.125 -0.141689 177.404 5.00661 178.824 7.84835L174.132 10.5301C171.825 5.63706 167.084 4.91133 164.475 5.06071C160.676 5.27596 154.498 8.20004 154.498 16.9087C154.498 25.6163 161.302 28.051 164.704 28.1792C170.16 28.1792 173.233 24.7306 174.104 22.851L178.824 25.6527C174.942 32.5112 168.457 33.3805 164.704 33.3805C153.399 33.3805 148.778 23.4591 148.778 16.9087C148.778 6.55333 155.917 0.00298552 164.475 0.00298552Z" fill="#FC4C00"/>
<path fill-rule="evenodd" clip-rule="evenodd" d="M80.5159 38.25V33.3075H104.884V38.2006H110.987V28.0616H105.863V0.00299072H82.0057C81.9599 24.7659 78.4181 28.0616 77.4402 28.0616H74.3655V38.25H80.5159ZM99.8991 5.20069H87.69C87.4106 20.6962 84.9876 27.2771 83.9627 28.0616H99.8969V5.20069H99.8991Z" fill="#FC4C00"/>
</svg>
