<svg width="160" height="34" viewBox="0 0 160 34" fill="none" xmlns="http://www.w3.org/2000/svg">
<path d="M14.7619 21.186L1.25399 0.00265379H7.34095L14.7609 11.5965L22.1829 0.00160827H29.4368V29.6851H24.0168V6.62815L14.7629 21.1871L14.7619 21.186ZM5.41997 29.729H0V23.1035L5.41997 14.5877V29.729ZM36.7718 29.729V0.00265379H42.1917V22.058L56.1986 0.00265379H62.5356V29.729H57.2826V8.02915L43.3587 29.729H36.7718ZM103.38 29.729V0.00265379H108.8V22.058L122.808 0.00265379H129.144V29.729H123.891V8.20585L110.136 29.729H103.38ZM147.162 0.00265379C154.901 -0.125946 158.73 4.45032 160 6.97631L155.802 9.36011C153.738 5.01072 149.496 4.36563 147.162 4.49841C143.763 4.68974 138.235 7.28892 138.235 15.03C138.235 22.77 144.323 24.9342 147.367 25.0482C152.248 25.0482 154.998 21.9827 155.777 20.312L160 22.8024C156.527 28.8989 150.725 29.6715 147.367 29.6715C137.252 29.6715 133.117 20.8525 133.117 15.03C133.117 5.82518 139.505 0.00265379 147.162 0.00265379Z" fill="#FC4C00"/>
<path fill-rule="evenodd" clip-rule="evenodd" d="M72.0406 34V29.6067H93.8434V33.9561H99.3044V24.9437H94.7194V0.00265503H73.3736C73.3326 22.0141 70.1636 24.9437 69.2886 24.9437H66.5376V34H72.0406ZM89.3835 4.62283H78.4595C78.2095 18.3966 76.0415 24.2463 75.1245 24.9437H89.3814V4.62283H89.3835Z" fill="#FC4C00"/>
</svg>
